M48
;DRILL file {KiCad (5.0.0)} date 08/07/18 11:47:49
;FORMAT={3:3/ absolute / metric / suppress leading zeros}
FMAT,2
METRIC,TZ
T1C0.400
T2C1.000
T3C1.200
%
G90
G05
M71
T1
X100000Y-79000
X104500Y-72000
X106000Y-83000
X107000Y-78000
X107000Y-88000
X109000Y-73000
X110000Y-72000
X112500Y-89000
X115000Y-69000
X116000Y-86000
T2
X109000Y-79000
X109000Y-81540
X109000Y-84080
X111540Y-79000
X111540Y-81540
X111540Y-84080
X97000Y-68580
X99540Y-68580
X102080Y-68580
X116840Y-74930
X116840Y-77470
X116840Y-80010
X116840Y-82550
T3
X88900Y-68580
X88900Y-72390
X88900Y-76200
X88900Y-80010
X88900Y-83820
X88900Y-87630
T0
M30
