G04 #@! TF.GenerationSoftware,KiCad,Pcbnew,(5.0.0)*
G04 #@! TF.CreationDate,2018-08-07T11:47:38-05:00*
G04 #@! TF.ProjectId,volvo240pcb,766F6C766F3234307063622E6B696361,rev?*
G04 #@! TF.SameCoordinates,Original*
G04 #@! TF.FileFunction,Legend,Bot*
G04 #@! TF.FilePolarity,Positive*
%FSLAX46Y46*%
G04 Gerber Fmt 4.6, Leading zero omitted, Abs format (unit mm)*
G04 Created by KiCad (PCBNEW (5.0.0)) date 08/07/18 11:47:38*
%MOMM*%
%LPD*%
G01*
G04 APERTURE LIST*
%ADD10C,0.300000*%
%ADD11C,0.120000*%
%ADD12C,0.150000*%
G04 APERTURE END LIST*
D10*
X94492857Y-71980714D02*
X93292857Y-71980714D01*
X93292857Y-72437857D01*
X93350000Y-72552142D01*
X93407142Y-72609285D01*
X93521428Y-72666428D01*
X93692857Y-72666428D01*
X93807142Y-72609285D01*
X93864285Y-72552142D01*
X93921428Y-72437857D01*
X93921428Y-71980714D01*
X94435714Y-73637857D02*
X94492857Y-73523571D01*
X94492857Y-73295000D01*
X94435714Y-73180714D01*
X94321428Y-73123571D01*
X93864285Y-73123571D01*
X93750000Y-73180714D01*
X93692857Y-73295000D01*
X93692857Y-73523571D01*
X93750000Y-73637857D01*
X93864285Y-73695000D01*
X93978571Y-73695000D01*
X94092857Y-73123571D01*
X93692857Y-74037857D02*
X93692857Y-74495000D01*
X93292857Y-74209285D02*
X94321428Y-74209285D01*
X94435714Y-74266428D01*
X94492857Y-74380714D01*
X94492857Y-74495000D01*
X94435714Y-75352142D02*
X94492857Y-75237857D01*
X94492857Y-75009285D01*
X94435714Y-74895000D01*
X94321428Y-74837857D01*
X93864285Y-74837857D01*
X93750000Y-74895000D01*
X93692857Y-75009285D01*
X93692857Y-75237857D01*
X93750000Y-75352142D01*
X93864285Y-75409285D01*
X93978571Y-75409285D01*
X94092857Y-74837857D01*
X94492857Y-75923571D02*
X93692857Y-75923571D01*
X93921428Y-75923571D02*
X93807142Y-75980714D01*
X93750000Y-76037857D01*
X93692857Y-76152142D01*
X93692857Y-76266428D01*
X94492857Y-77580714D02*
X93292857Y-77580714D01*
X93292857Y-77866428D01*
X93350000Y-78037857D01*
X93464285Y-78152142D01*
X93578571Y-78209285D01*
X93807142Y-78266428D01*
X93978571Y-78266428D01*
X94207142Y-78209285D01*
X94321428Y-78152142D01*
X94435714Y-78037857D01*
X94492857Y-77866428D01*
X94492857Y-77580714D01*
X94435714Y-79237857D02*
X94492857Y-79123571D01*
X94492857Y-78895000D01*
X94435714Y-78780714D01*
X94321428Y-78723571D01*
X93864285Y-78723571D01*
X93750000Y-78780714D01*
X93692857Y-78895000D01*
X93692857Y-79123571D01*
X93750000Y-79237857D01*
X93864285Y-79295000D01*
X93978571Y-79295000D01*
X94092857Y-78723571D01*
X93692857Y-79809285D02*
X94492857Y-79809285D01*
X93807142Y-79809285D02*
X93750000Y-79866428D01*
X93692857Y-79980714D01*
X93692857Y-80152142D01*
X93750000Y-80266428D01*
X93864285Y-80323571D01*
X94492857Y-80323571D01*
X94492857Y-81809285D02*
X93292857Y-81809285D01*
X93864285Y-81809285D02*
X93864285Y-82495000D01*
X94492857Y-82495000D02*
X93292857Y-82495000D01*
X94492857Y-83580714D02*
X93864285Y-83580714D01*
X93750000Y-83523571D01*
X93692857Y-83409285D01*
X93692857Y-83180714D01*
X93750000Y-83066428D01*
X94435714Y-83580714D02*
X94492857Y-83466428D01*
X94492857Y-83180714D01*
X94435714Y-83066428D01*
X94321428Y-83009285D01*
X94207142Y-83009285D01*
X94092857Y-83066428D01*
X94035714Y-83180714D01*
X94035714Y-83466428D01*
X93978571Y-83580714D01*
X94492857Y-84152142D02*
X93692857Y-84152142D01*
X93921428Y-84152142D02*
X93807142Y-84209285D01*
X93750000Y-84266428D01*
X93692857Y-84380714D01*
X93692857Y-84495000D01*
X93692857Y-84723571D02*
X93692857Y-85180714D01*
X93292857Y-84895000D02*
X94321428Y-84895000D01*
X94435714Y-84952142D01*
X94492857Y-85066428D01*
X94492857Y-85180714D01*
X94492857Y-85752142D02*
X94435714Y-85637857D01*
X94378571Y-85580714D01*
X94264285Y-85523571D01*
X93921428Y-85523571D01*
X93807142Y-85580714D01*
X93750000Y-85637857D01*
X93692857Y-85752142D01*
X93692857Y-85923571D01*
X93750000Y-86037857D01*
X93807142Y-86095000D01*
X93921428Y-86152142D01*
X94264285Y-86152142D01*
X94378571Y-86095000D01*
X94435714Y-86037857D01*
X94492857Y-85923571D01*
X94492857Y-85752142D01*
X93692857Y-87180714D02*
X94664285Y-87180714D01*
X94778571Y-87123571D01*
X94835714Y-87066428D01*
X94892857Y-86952142D01*
X94892857Y-86780714D01*
X94835714Y-86666428D01*
X94435714Y-87180714D02*
X94492857Y-87066428D01*
X94492857Y-86837857D01*
X94435714Y-86723571D01*
X94378571Y-86666428D01*
X94264285Y-86609285D01*
X93921428Y-86609285D01*
X93807142Y-86666428D01*
X93750000Y-86723571D01*
X93692857Y-86837857D01*
X93692857Y-87066428D01*
X93750000Y-87180714D01*
X95507142Y-71923571D02*
X95450000Y-71980714D01*
X95392857Y-72095000D01*
X95392857Y-72380714D01*
X95450000Y-72495000D01*
X95507142Y-72552142D01*
X95621428Y-72609285D01*
X95735714Y-72609285D01*
X95907142Y-72552142D01*
X96592857Y-71866428D01*
X96592857Y-72609285D01*
X95392857Y-73352142D02*
X95392857Y-73466428D01*
X95450000Y-73580714D01*
X95507142Y-73637857D01*
X95621428Y-73695000D01*
X95850000Y-73752142D01*
X96135714Y-73752142D01*
X96364285Y-73695000D01*
X96478571Y-73637857D01*
X96535714Y-73580714D01*
X96592857Y-73466428D01*
X96592857Y-73352142D01*
X96535714Y-73237857D01*
X96478571Y-73180714D01*
X96364285Y-73123571D01*
X96135714Y-73066428D01*
X95850000Y-73066428D01*
X95621428Y-73123571D01*
X95507142Y-73180714D01*
X95450000Y-73237857D01*
X95392857Y-73352142D01*
X96592857Y-74895000D02*
X96592857Y-74209285D01*
X96592857Y-74552142D02*
X95392857Y-74552142D01*
X95564285Y-74437857D01*
X95678571Y-74323571D01*
X95735714Y-74209285D01*
X95907142Y-75580714D02*
X95850000Y-75466428D01*
X95792857Y-75409285D01*
X95678571Y-75352142D01*
X95621428Y-75352142D01*
X95507142Y-75409285D01*
X95450000Y-75466428D01*
X95392857Y-75580714D01*
X95392857Y-75809285D01*
X95450000Y-75923571D01*
X95507142Y-75980714D01*
X95621428Y-76037857D01*
X95678571Y-76037857D01*
X95792857Y-75980714D01*
X95850000Y-75923571D01*
X95907142Y-75809285D01*
X95907142Y-75580714D01*
X95964285Y-75466428D01*
X96021428Y-75409285D01*
X96135714Y-75352142D01*
X96364285Y-75352142D01*
X96478571Y-75409285D01*
X96535714Y-75466428D01*
X96592857Y-75580714D01*
X96592857Y-75809285D01*
X96535714Y-75923571D01*
X96478571Y-75980714D01*
X96364285Y-76037857D01*
X96135714Y-76037857D01*
X96021428Y-75980714D01*
X95964285Y-75923571D01*
X95907142Y-75809285D01*
X96135714Y-76552142D02*
X96135714Y-77466428D01*
X95392857Y-78266428D02*
X95392857Y-78380714D01*
X95450000Y-78494999D01*
X95507142Y-78552142D01*
X95621428Y-78609285D01*
X95850000Y-78666428D01*
X96135714Y-78666428D01*
X96364285Y-78609285D01*
X96478571Y-78552142D01*
X96535714Y-78494999D01*
X96592857Y-78380714D01*
X96592857Y-78266428D01*
X96535714Y-78152142D01*
X96478571Y-78094999D01*
X96364285Y-78037857D01*
X96135714Y-77980714D01*
X95850000Y-77980714D01*
X95621428Y-78037857D01*
X95507142Y-78094999D01*
X95450000Y-78152142D01*
X95392857Y-78266428D01*
X95907142Y-79352142D02*
X95850000Y-79237857D01*
X95792857Y-79180714D01*
X95678571Y-79123571D01*
X95621428Y-79123571D01*
X95507142Y-79180714D01*
X95450000Y-79237857D01*
X95392857Y-79352142D01*
X95392857Y-79580714D01*
X95450000Y-79694999D01*
X95507142Y-79752142D01*
X95621428Y-79809285D01*
X95678571Y-79809285D01*
X95792857Y-79752142D01*
X95850000Y-79694999D01*
X95907142Y-79580714D01*
X95907142Y-79352142D01*
X95964285Y-79237857D01*
X96021428Y-79180714D01*
X96135714Y-79123571D01*
X96364285Y-79123571D01*
X96478571Y-79180714D01*
X96535714Y-79237857D01*
X96592857Y-79352142D01*
X96592857Y-79580714D01*
X96535714Y-79694999D01*
X96478571Y-79752142D01*
X96364285Y-79809285D01*
X96135714Y-79809285D01*
X96021428Y-79752142D01*
X95964285Y-79694999D01*
X95907142Y-79580714D01*
D11*
G04 #@! TO.C,J3*
X115510000Y-73600000D02*
X118170000Y-73600000D01*
X115510000Y-81280000D02*
X115510000Y-73600000D01*
X118170000Y-81280000D02*
X118170000Y-73600000D01*
X115510000Y-81280000D02*
X118170000Y-81280000D01*
X115510000Y-82550000D02*
X115510000Y-83880000D01*
X115510000Y-83880000D02*
X116840000Y-83880000D01*
D12*
X117173333Y-84332380D02*
X117173333Y-85046666D01*
X117220952Y-85189523D01*
X117316190Y-85284761D01*
X117459047Y-85332380D01*
X117554285Y-85332380D01*
X116792380Y-84332380D02*
X116173333Y-84332380D01*
X116506666Y-84713333D01*
X116363809Y-84713333D01*
X116268571Y-84760952D01*
X116220952Y-84808571D01*
X116173333Y-84903809D01*
X116173333Y-85141904D01*
X116220952Y-85237142D01*
X116268571Y-85284761D01*
X116363809Y-85332380D01*
X116649523Y-85332380D01*
X116744761Y-85284761D01*
X116792380Y-85237142D01*
G04 #@! TD*
M02*
